{
  "accessors": [
    {
      "bufferView": 2,
      "componentType": 5126,
      "count": 5288,
      "max": [
        3.2403135299682617,
        48.33025360107422,
        41.09336471557617
      ],
      "min": [
        -2.814112901687622,
        10.447357177734375,
        -27.433116912841797
      ],
      "type": "VEC3"
    },
    {
      "bufferView": 2,
      "byteOffset": 63456,
      "componentType": 5126,
      "count": 5288,
      "max": [
        0.9999694228172302,
        0.9702066779136658,
        0.9974372982978821
      ],
      "min": [
        -0.9999694228172302,
        -0.9999377131462097,
        -0.999977707862854
      ],
      "type": "VEC3"
    },
    {
      "bufferView": 3,
      "componentType": 5126,
      "count": 5288,
      "max": [
        1.0,
        0.896602213382721,
        0.7901309132575989,
        1.0
      ],
      "min": [
        -0.9999993443489075,
        -0.9024396538734436,
        -0.7760962247848511,
        1.0
      ],
      "type": "VEC4"
    },
    {
      "bufferView": 1,
      "componentType": 5126,
      "count": 5288,
      "max": [
        0.98935467004776,
        0.9886944890022278
      ],
      "min": [
        0.011202514171600342,
        0.011432647705078125
      ],
      "type": "VEC2"
    },
    {
      "bufferView": 1,
      "byteOffset": 42304,
      "componentType": 5126,
      "count": 5288,
      "max": [
        0.0,
        0.0
      ],
      "min": [
        0.0,
        0.0
      ],
      "type": "VEC2"
    },
    {
      "bufferView": 0,
      "componentType": 5125,
      "count": 27276,
      "type": "SCALAR"
    }
  ],
  "asset": {
    "extras": {
      "author": "Ngkua06 (https://sketchfab.com/nghiakua06)",
      "license": "CC-BY-4.0 (http://creativecommons.org/licenses/by/4.0/)",
      "source": "https://sketchfab.com/3d-models/axe-19e35b743cf14f69b393ae2977b1c086",
      "title": "Axe"
    },
    "generator": "Sketchfab-17.15.0",
    "version": "2.0"
  },
  "bufferViews": [
    {
      "buffer": 0,
      "byteLength": 109104,
      "name": "floatBufferViews",
      "target": 34963
    },
    {
      "buffer": 0,
      "byteLength": 84608,
      "byteOffset": 109104,
      "byteStride": 8,
      "name": "floatBufferViews",
      "target": 34962
    },
    {
      "buffer": 0,
      "byteLength": 126912,
      "byteOffset": 193712,
      "byteStride": 12,
      "name": "floatBufferViews",
      "target": 34962
    },
    {
      "buffer": 0,
      "byteLength": 84608,
      "byteOffset": 320624,
      "byteStride": 16,
      "name": "floatBufferViews",
      "target": 34962
    }
  ],
  "buffers": [
    {
      "byteLength": 405232,
      "uri": "longAxe.bin"
    }
  ],
  "images": [
    {
      "uri": "../../../textures/tool/longAxe/material_baseColor.jpeg"
    },
    {
      "uri": "../../../textures/tool/longAxe/material_metallicRoughness.png"
    },
    {
      "uri": "../../../textures/tool/longAxe/material_normal.jpeg"
    }
  ],
  "materials": [
    {
      "doubleSided": true,
      "name": "material",
      "normalTexture": {
        "index": 2
      },
      "pbrMetallicRoughness": {
        "baseColorTexture": {
          "index": 0
        },
        "metallicRoughnessTexture": {
          "index": 1
        }
      }
    }
  ],
  "meshes": [
    {
      "name": "axe_1_axe_0",
      "primitives": [
        {
          "attributes": {
            "NORMAL": 1,
            "POSITION": 0,
            "TANGENT": 2,
            "TEXCOORD_0": 3,
            "TEXCOORD_1": 4
          },
          "indices": 5,
          "material": 0,
          "mode": 4
        }
      ]
    }
  ],
  "nodes": [
    {
      "children": [
        1
      ],
      "matrix": [
        1.0,
        0.0,
        0.0,
        0.0,
        0.0,
        2.220446049250313e-16,
        -1.0,
        0.0,
        0.0,
        1.0,
        2.220446049250313e-16,
        0.0,
        0.0,
        0.0,
        0.0,
        1.0
      ],
      "name": "Sketchfab_model"
    },
    {
      "children": [
        2
      ],
      "matrix": [
        0.009999999776482582,
        0.0,
        0.0,
        0.0,
        0.0,
        0.0,
        0.009999999776482582,
        0.0,
        0.0,
        -0.009999999776482582,
        0.0,
        0.0,
        0.0,
        0.0,
        0.0,
        1.0
      ],
      "name": "b40b7ef5e3e7438f94855e7e40e1e772.fbx"
    },
    {
      "children": [
        3
      ],
      "name": "RootNode"
    },
    {
      "children": [
        4
      ],
      "name": "axe_1"
    },
    {
      "mesh": 0,
      "name": "axe_1_axe_0"
    }
  ],
  "samplers": [
    {
      "magFilter": 9729,
      "minFilter": 9987,
      "wrapS": 10497,
      "wrapT": 10497
    }
  ],
  "scene": 0,
  "scenes": [
    {
      "name": "Sketchfab_Scene",
      "nodes": [
        0
      ]
    }
  ],
  "textures": [
    {
      "sampler": 0,
      "source": 0
    },
    {
      "sampler": 0,
      "source": 1
    },
    {
      "sampler": 0,
      "source": 2
    }
  ]
}
