{
  "accessors": [
    {
      "bufferView": 2,
      "componentType": 5126,
      "count": 26908,
      "max": [
        3.830280065536499,
        3.8319098949432373,
        8.42488956451416
      ],
      "min": [
        -2.2826099395751953,
        -3.551990032196045,
        -0.01940000057220459
      ],
      "type": "VEC3"
    },
    {
      "bufferView": 2,
      "byteOffset": 322896,
      "componentType": 5126,
      "count": 26908,
      "max": [
        0.9999784231185913,
        0.9999099969863892,
        0.9999659657478333
      ],
      "min": [
        -0.9999967813491821,
        -0.9999387860298157,
        -0.9999986886978149
      ],
      "type": "VEC3"
    },
    {
      "bufferView": 1,
      "componentType": 5126,
      "count": 26908,
      "max": [
        1.0,
        1.0
      ],
      "min": [
        0.0,
        0.0
      ],
      "type": "VEC2"
    },
    {
      "bufferView": 0,
      "componentType": 5125,
      "count": 95550,
      "type": "SCALAR"
    },
    {
      "bufferView": 2,
      "byteOffset": 645792,
      "componentType": 5126,
      "count": 25025,
      "max": [
        8.853850364685059,
        -4.066370010375977,
        12.810759544372559
      ],
      "min": [
        1.3121999502182007,
        -11.85966968536377,
        0.0
      ],
      "type": "VEC3"
    },
    {
      "bufferView": 2,
      "byteOffset": 946092,
      "componentType": 5126,
      "count": 25025,
      "max": [
        0.9999598860740662,
        0.999976396560669,
        0.9999815225601196
      ],
      "min": [
        -0.9999959468841553,
        -0.9999619126319885,
        -0.9999099969863892
      ],
      "type": "VEC3"
    },
    {
      "bufferView": 1,
      "byteOffset": 215264,
      "componentType": 5126,
      "count": 25025,
      "max": [
        1.0,
        1.0
      ],
      "min": [
        0.0,
        0.0
      ],
      "type": "VEC2"
    },
    {
      "bufferView": 0,
      "byteOffset": 382200,
      "componentType": 5125,
      "count": 88563,
      "type": "SCALAR"
    },
    {
      "bufferView": 2,
      "byteOffset": 1246392,
      "componentType": 5126,
      "count": 26437,
      "max": [
        13.606619834899902,
        -5.4097700119018555,
        9.946450233459473
      ],
      "min": [
        5.651000022888184,
        -12.03516960144043,
        0.0
      ],
      "type": "VEC3"
    },
    {
      "bufferView": 2,
      "byteOffset": 1563636,
      "componentType": 5126,
      "count": 26437,
      "max": [
        0.9999986886978149,
        0.9997876286506653,
        0.9999203681945801
      ],
      "min": [
        -0.9999994039535522,
        -0.9999953508377075,
        -0.9999830722808838
      ],
      "type": "VEC3"
    },
    {
      "bufferView": 1,
      "byteOffset": 415464,
      "componentType": 5126,
      "count": 26437,
      "max": [
        1.0,
        1.0
      ],
      "min": [
        0.0,
        0.0
      ],
      "type": "VEC2"
    },
    {
      "bufferView": 0,
      "byteOffset": 736452,
      "componentType": 5125,
      "count": 93588,
      "type": "SCALAR"
    },
    {
      "bufferView": 2,
      "byteOffset": 1880880,
      "componentType": 5126,
      "count": 26047,
      "max": [
        20.07261085510254,
        -5.355500221252441,
        10.329520225524902
      ],
      "min": [
        12.72953987121582,
        -11.45048999786377,
        0.0
      ],
      "type": "VEC3"
    },
    {
      "bufferView": 2,
      "byteOffset": 2193444,
      "componentType": 5126,
      "count": 26047,
      "max": [
        0.9999996423721313,
        0.9999926090240479,
        0.9999403357505798
      ],
      "min": [
        -0.9999754428863525,
        -0.9999866485595703,
        -0.9998266696929932
      ],
      "type": "VEC3"
    },
    {
      "bufferView": 1,
      "byteOffset": 626960,
      "componentType": 5126,
      "count": 26047,
      "max": [
        1.0,
        1.0
      ],
      "min": [
        0.0,
        0.0
      ],
      "type": "VEC2"
    },
    {
      "bufferView": 0,
      "byteOffset": 1110804,
      "componentType": 5125,
      "count": 92166,
      "type": "SCALAR"
    },
    {
      "bufferView": 2,
      "byteOffset": 2506008,
      "componentType": 5126,
      "count": 26815,
      "max": [
        -0.5126799941062927,
        -11.151229858398438,
        5.692070007324219
      ],
      "min": [
        -4.169260025024414,
        -15.198909759521484,
        0.0
      ],
      "type": "VEC3"
    },
    {
      "bufferView": 2,
      "byteOffset": 2827788,
      "componentType": 5126,
      "count": 26815,
      "max": [
        0.9999767541885376,
        0.9999727606773376,
        0.9999961853027344
      ],
      "min": [
        -0.9999426007270813,
        -0.9999719262123108,
        -0.9999275207519531
      ],
      "type": "VEC3"
    },
    {
      "bufferView": 1,
      "byteOffset": 835336,
      "componentType": 5126,
      "count": 26815,
      "max": [
        1.0,
        1.0
      ],
      "min": [
        0.0,
        0.0
      ],
      "type": "VEC2"
    },
    {
      "bufferView": 0,
      "byteOffset": 1479468,
      "componentType": 5125,
      "count": 94893,
      "type": "SCALAR"
    },
    {
      "bufferView": 2,
      "byteOffset": 3149568,
      "componentType": 5126,
      "count": 25621,
      "max": [
        5.903689861297607,
        -10.07682991027832,
        7.934179782867432
      ],
      "min": [
        0.6630499958992004,
        -15.264749526977539,
        0.0
      ],
      "type": "VEC3"
    },
    {
      "bufferView": 2,
      "byteOffset": 3457020,
      "componentType": 5126,
      "count": 25621,
      "max": [
        0.9999837875366211,
        0.9999584555625916,
        0.9999609589576721
      ],
      "min": [
        -0.9999985694885254,
        -0.9999988079071045,
        -0.9999254941940308
      ],
      "type": "VEC3"
    },
    {
      "bufferView": 1,
      "byteOffset": 1049856,
      "componentType": 5126,
      "count": 25621,
      "max": [
        1.0,
        1.0
      ],
      "min": [
        0.0,
        0.0
      ],
      "type": "VEC2"
    },
    {
      "bufferView": 0,
      "byteOffset": 1859040,
      "componentType": 5125,
      "count": 90888,
      "type": "SCALAR"
    },
    {
      "bufferView": 2,
      "byteOffset": 3764472,
      "componentType": 5126,
      "count": 26380,
      "max": [
        9.952400207519531,
        -11.621919631958008,
        5.94842004776001
      ],
      "min": [
        4.995719909667969,
        -15.733530044555664,
        0.0
      ],
      "type": "VEC3"
    },
    {
      "bufferView": 2,
      "byteOffset": 4081032,
      "componentType": 5126,
      "count": 26380,
      "max": [
        0.9997429847717285,
        0.9999451041221619,
        0.9998902678489685
      ],
      "min": [
        -0.9999845027923584,
        -0.9999850988388062,
        -0.9999428391456604
      ],
      "type": "VEC3"
    },
    {
      "bufferView": 1,
      "byteOffset": 1254824,
      "componentType": 5126,
      "count": 26380,
      "max": [
        1.0,
        1.0
      ],
      "min": [
        0.0,
        0.0
      ],
      "type": "VEC2"
    },
    {
      "bufferView": 0,
      "byteOffset": 2222592,
      "componentType": 5125,
      "count": 93543,
      "type": "SCALAR"
    },
    {
      "bufferView": 2,
      "byteOffset": 4397592,
      "componentType": 5126,
      "count": 25740,
      "max": [
        15.477290153503418,
        -10.31054973602295,
        10.065170288085938
      ],
      "min": [
        9.029999732971191,
        -17.305770874023438,
        0.0
      ],
      "type": "VEC3"
    },
    {
      "bufferView": 2,
      "byteOffset": 4706472,
      "componentType": 5126,
      "count": 25740,
      "max": [
        0.9999783039093018,
        0.9999473690986633,
        0.9999840259552002
      ],
      "min": [
        -0.9999326467514038,
        -0.99994295835495,
        -0.9998956918716431
      ],
      "type": "VEC3"
    },
    {
      "bufferView": 1,
      "byteOffset": 1465864,
      "componentType": 5126,
      "count": 25740,
      "max": [
        1.0,
        1.0
      ],
      "min": [
        0.0,
        0.0
      ],
      "type": "VEC2"
    },
    {
      "bufferView": 0,
      "byteOffset": 2596764,
      "componentType": 5125,
      "count": 91251,
      "type": "SCALAR"
    },
    {
      "bufferView": 2,
      "byteOffset": 5015352,
      "componentType": 5126,
      "count": 25883,
      "max": [
        8.38284969329834,
        2.2235701084136963,
        11.827309608459473
      ],
      "min": [
        0.5098199844360352,
        -4.4068098068237305,
        0.0
      ],
      "type": "VEC3"
    },
    {
      "bufferView": 2,
      "byteOffset": 5325948,
      "componentType": 5126,
      "count": 25883,
      "max": [
        0.9999821186065674,
        0.9998985528945923,
        0.9999934434890747
      ],
      "min": [
        -0.9997960925102234,
        -0.9999470114707947,
        -0.9999889135360718
      ],
      "type": "VEC3"
    },
    {
      "bufferView": 1,
      "byteOffset": 1671784,
      "componentType": 5126,
      "count": 25883,
      "max": [
        1.0,
        1.0
      ],
      "min": [
        0.0,
        0.0
      ],
      "type": "VEC2"
    },
    {
      "bufferView": 0,
      "byteOffset": 2961768,
      "componentType": 5125,
      "count": 91605,
      "type": "SCALAR"
    },
    {
      "bufferView": 2,
      "byteOffset": 5636544,
      "componentType": 5126,
      "count": 25419,
      "max": [
        12.946889877319336,
        2.0435800552368164,
        9.418560028076172
      ],
      "min": [
        6.260369777679443,
        -3.252969980239868,
        0.0
      ],
      "type": "VEC3"
    },
    {
      "bufferView": 2,
      "byteOffset": 5941572,
      "componentType": 5126,
      "count": 25419,
      "max": [
        0.9999967813491821,
        0.9999767541885376,
        0.9999988079071045
      ],
      "min": [
        -0.9999858140945435,
        -0.9999957084655762,
        -0.9999885559082031
      ],
      "type": "VEC3"
    },
    {
      "bufferView": 1,
      "byteOffset": 1878848,
      "componentType": 5126,
      "count": 25419,
      "max": [
        1.0,
        1.0
      ],
      "min": [
        0.0,
        0.0
      ],
      "type": "VEC2"
    },
    {
      "bufferView": 0,
      "byteOffset": 3328188,
      "componentType": 5125,
      "count": 90261,
      "type": "SCALAR"
    },
    {
      "bufferView": 2,
      "byteOffset": 6246600,
      "componentType": 5126,
      "count": 26891,
      "max": [
        17.88722038269043,
        2.553499937057495,
        8.57742977142334
      ],
      "min": [
        13.946269989013672,
        -2.2646501064300537,
        0.0
      ],
      "type": "VEC3"
    },
    {
      "bufferView": 2,
      "byteOffset": 6569292,
      "componentType": 5126,
      "count": 26891,
      "max": [
        0.9999984502792358,
        0.999973475933075,
        0.9999982118606567
      ],
      "min": [
        -0.9999330043792725,
        -0.999985933303833,
        -0.9999146461486816
      ],
      "type": "VEC3"
    },
    {
      "bufferView": 1,
      "byteOffset": 2082200,
      "componentType": 5126,
      "count": 26891,
      "max": [
        1.0,
        1.0
      ],
      "min": [
        0.0,
        0.0
      ],
      "type": "VEC2"
    },
    {
      "bufferView": 0,
      "byteOffset": 3689232,
      "componentType": 5125,
      "count": 95232,
      "type": "SCALAR"
    },
    {
      "bufferView": 2,
      "byteOffset": 6891984,
      "componentType": 5126,
      "count": 26229,
      "max": [
        1.0892499685287476,
        -2.9888999462127686,
        8.902549743652344
      ],
      "min": [
        -4.752779960632324,
        -7.065609931945801,
        -0.058970000594854355
      ],
      "type": "VEC3"
    },
    {
      "bufferView": 2,
      "byteOffset": 7206732,
      "componentType": 5126,
      "count": 26229,
      "max": [
        0.9998230934143066,
        0.9999918937683105,
        0.9999669194221497
      ],
      "min": [
        -0.99998939037323,
        -0.99991774559021,
        -0.9999310970306396
      ],
      "type": "VEC3"
    },
    {
      "bufferView": 1,
      "byteOffset": 2297328,
      "componentType": 5126,
      "count": 26229,
      "max": [
        1.0,
        1.0
      ],
      "min": [
        0.0,
        0.0
      ],
      "type": "VEC2"
    },
    {
      "bufferView": 0,
      "byteOffset": 4070160,
      "componentType": 5125,
      "count": 92862,
      "type": "SCALAR"
    },
    {
      "bufferView": 2,
      "byteOffset": 7521480,
      "componentType": 5126,
      "count": 26497,
      "max": [
        5.770110130310059,
        -1.5488500595092773,
        8.144980430603027
      ],
      "min": [
        0.2662299871444702,
        -7.270450115203857,
        0.0
      ],
      "type": "VEC3"
    },
    {
      "bufferView": 2,
      "byteOffset": 7839444,
      "componentType": 5126,
      "count": 26497,
      "max": [
        0.9999421238899231,
        0.9999239444732666,
        0.9999971389770508
      ],
      "min": [
        -0.9999979734420776,
        -0.9999942779541016,
        -0.9997541904449463
      ],
      "type": "VEC3"
    },
    {
      "bufferView": 1,
      "byteOffset": 2507160,
      "componentType": 5126,
      "count": 26497,
      "max": [
        1.0,
        1.0
      ],
      "min": [
        0.0,
        0.0
      ],
      "type": "VEC2"
    },
    {
      "bufferView": 0,
      "byteOffset": 4441608,
      "componentType": 5125,
      "count": 94083,
      "type": "SCALAR"
    },
    {
      "bufferView": 2,
      "byteOffset": 8157408,
      "componentType": 5126,
      "count": 26407,
      "max": [
        11.167619705200195,
        0.46772998571395874,
        10.634309768676758
      ],
      "min": [
        3.037139892578125,
        -7.573760032653809,
        0.0
      ],
      "type": "VEC3"
    },
    {
      "bufferView": 2,
      "byteOffset": 8474292,
      "componentType": 5126,
      "count": 26407,
      "max": [
        0.9999902248382568,
        0.9999640583992004,
        0.9999037981033325
      ],
      "min": [
        -0.9999985694885254,
        -0.9999701380729675,
        -0.9999399781227112
      ],
      "type": "VEC3"
    },
    {
      "bufferView": 1,
      "byteOffset": 2719136,
      "componentType": 5126,
      "count": 26407,
      "max": [
        1.0,
        1.0
      ],
      "min": [
        0.0,
        0.0
      ],
      "type": "VEC2"
    },
    {
      "bufferView": 0,
      "byteOffset": 4817940,
      "componentType": 5125,
      "count": 93363,
      "type": "SCALAR"
    },
    {
      "bufferView": 2,
      "byteOffset": 8791176,
      "componentType": 5126,
      "count": 25715,
      "max": [
        15.396439552307129,
        -2.488729953765869,
        9.55657958984375
      ],
      "min": [
        9.684900283813477,
        -7.5017900466918945,
        0.0
      ],
      "type": "VEC3"
    },
    {
      "bufferView": 2,
      "byteOffset": 9099756,
      "componentType": 5126,
      "count": 25715,
      "max": [
        0.9999096393585205,
        0.9999103546142578,
        0.9999495148658752
      ],
      "min": [
        -0.9999877214431763,
        -0.9999037981033325,
        -0.9998891949653625
      ],
      "type": "VEC3"
    },
    {
      "bufferView": 1,
      "byteOffset": 2930392,
      "componentType": 5126,
      "count": 25715,
      "max": [
        1.0,
        1.0
      ],
      "min": [
        0.0,
        0.0
      ],
      "type": "VEC2"
    },
    {
      "bufferView": 0,
      "byteOffset": 5191392,
      "componentType": 5125,
      "count": 91002,
      "type": "SCALAR"
    },
    {
      "bufferView": 2,
      "byteOffset": 9408336,
      "componentType": 5126,
      "count": 27111,
      "max": [
        3.374850034713745,
        -6.099440097808838,
        8.194109916687012
      ],
      "min": [
        -1.9799799919128418,
        -11.131930351257324,
        0.0
      ],
      "type": "VEC3"
    },
    {
      "bufferView": 2,
      "byteOffset": 9733668,
      "componentType": 5126,
      "count": 27111,
      "max": [
        0.9998762011528015,
        0.9999864101409912,
        0.9999773502349854
      ],
      "min": [
        -0.9999974966049194,
        -0.9999584555625916,
        -0.9999327659606934
      ],
      "type": "VEC3"
    },
    {
      "bufferView": 1,
      "byteOffset": 3136112,
      "componentType": 5126,
      "count": 27111,
      "max": [
        1.0,
        1.0
      ],
      "min": [
        0.0,
        0.0
      ],
      "type": "VEC2"
    },
    {
      "bufferView": 0,
      "byteOffset": 5555400,
      "componentType": 5125,
      "count": 96174,
      "type": "SCALAR"
    }
  ],
  "asset": {
    "extras": {
      "author": "Sereib (https://sketchfab.com/Sereib)",
      "license": "CC-BY-4.0 (http://creativecommons.org/licenses/by/4.0/)",
      "source": "https://sketchfab.com/3d-models/16-dead-fir-trees-pack-high-poly-0cda6c4f86a04384845d4972327e14c7",
      "title": "16 Dead Fir Trees Pack (high-Poly)"
    },
    "generator": "Sketchfab-16.3.0",
    "version": "2.0"
  },
  "bufferViews": [
    {
      "buffer": 0,
      "byteLength": 5940096,
      "name": "floatBufferViews",
      "target": 34963
    },
    {
      "buffer": 0,
      "byteLength": 3353000,
      "byteOffset": 5940096,
      "byteStride": 8,
      "name": "floatBufferViews",
      "target": 34962
    },
    {
      "buffer": 0,
      "byteLength": 10059000,
      "byteOffset": 9293096,
      "byteStride": 12,
      "name": "floatBufferViews",
      "target": 34962
    }
  ],
  "buffers": [
    {
      "byteLength": 19352096,
      "uri": "deadTrees.bin"
    }
  ],
  "images": [
    {
      "uri": "../../textures/Trees/bark_fir_01.jpeg"
    }
  ],
  "materials": [
    {
      "doubleSided": true,
      "name": "bark_fir_01.jpeg",
      "pbrMetallicRoughness": {
        "baseColorTexture": {
          "index": 0
        },
        "metallicFactor": 0.23011404830503668,
        "roughnessFactor": 0.4420522390412125
      }
    }
  ],
  "meshes": [
    {
      "name": "Object_0",
      "primitives": [
        {
          "attributes": {
            "NORMAL": 1,
            "POSITION": 0,
            "TEXCOORD_0": 2
          },
          "indices": 3,
          "material": 0,
          "mode": 4
        }
      ]
    },
    {
      "name": "Object_1",
      "primitives": [
        {
          "attributes": {
            "NORMAL": 5,
            "POSITION": 4,
            "TEXCOORD_0": 6
          },
          "indices": 7,
          "material": 0,
          "mode": 4
        }
      ]
    },
    {
      "name": "Object_2",
      "primitives": [
        {
          "attributes": {
            "NORMAL": 9,
            "POSITION": 8,
            "TEXCOORD_0": 10
          },
          "indices": 11,
          "material": 0,
          "mode": 4
        }
      ]
    },
    {
      "name": "Object_3",
      "primitives": [
        {
          "attributes": {
            "NORMAL": 13,
            "POSITION": 12,
            "TEXCOORD_0": 14
          },
          "indices": 15,
          "material": 0,
          "mode": 4
        }
      ]
    },
    {
      "name": "Object_4",
      "primitives": [
        {
          "attributes": {
            "NORMAL": 17,
            "POSITION": 16,
            "TEXCOORD_0": 18
          },
          "indices": 19,
          "material": 0,
          "mode": 4
        }
      ]
    },
    {
      "name": "Object_5",
      "primitives": [
        {
          "attributes": {
            "NORMAL": 21,
            "POSITION": 20,
            "TEXCOORD_0": 22
          },
          "indices": 23,
          "material": 0,
          "mode": 4
        }
      ]
    },
    {
      "name": "Object_6",
      "primitives": [
        {
          "attributes": {
            "NORMAL": 25,
            "POSITION": 24,
            "TEXCOORD_0": 26
          },
          "indices": 27,
          "material": 0,
          "mode": 4
        }
      ]
    },
    {
      "name": "Object_7",
      "primitives": [
        {
          "attributes": {
            "NORMAL": 29,
            "POSITION": 28,
            "TEXCOORD_0": 30
          },
          "indices": 31,
          "material": 0,
          "mode": 4
        }
      ]
    },
    {
      "name": "Object_8",
      "primitives": [
        {
          "attributes": {
            "NORMAL": 33,
            "POSITION": 32,
            "TEXCOORD_0": 34
          },
          "indices": 35,
          "material": 0,
          "mode": 4
        }
      ]
    },
    {
      "name": "Object_9",
      "primitives": [
        {
          "attributes": {
            "NORMAL": 37,
            "POSITION": 36,
            "TEXCOORD_0": 38
          },
          "indices": 39,
          "material": 0,
          "mode": 4
        }
      ]
    },
    {
      "name": "Object_10",
      "primitives": [
        {
          "attributes": {
            "NORMAL": 41,
            "POSITION": 40,
            "TEXCOORD_0": 42
          },
          "indices": 43,
          "material": 0,
          "mode": 4
        }
      ]
    },
    {
      "name": "Object_11",
      "primitives": [
        {
          "attributes": {
            "NORMAL": 45,
            "POSITION": 44,
            "TEXCOORD_0": 46
          },
          "indices": 47,
          "material": 0,
          "mode": 4
        }
      ]
    },
    {
      "name": "Object_12",
      "primitives": [
        {
          "attributes": {
            "NORMAL": 49,
            "POSITION": 48,
            "TEXCOORD_0": 50
          },
          "indices": 51,
          "material": 0,
          "mode": 4
        }
      ]
    },
    {
      "name": "Object_13",
      "primitives": [
        {
          "attributes": {
            "NORMAL": 53,
            "POSITION": 52,
            "TEXCOORD_0": 54
          },
          "indices": 55,
          "material": 0,
          "mode": 4
        }
      ]
    },
    {
      "name": "Object_14",
      "primitives": [
        {
          "attributes": {
            "NORMAL": 57,
            "POSITION": 56,
            "TEXCOORD_0": 58
          },
          "indices": 59,
          "material": 0,
          "mode": 4
        }
      ]
    },
    {
      "name": "Object_15",
      "primitives": [
        {
          "attributes": {
            "NORMAL": 61,
            "POSITION": 60,
            "TEXCOORD_0": 62
          },
          "indices": 63,
          "material": 0,
          "mode": 4
        }
      ]
    }
  ],
  "nodes": [
    {
      "children": [
        1
      ],
      "matrix": [
        1.0,
        0.0,
        0.0,
        0.0,
        0.0,
        2.220446049250313e-16,
        -1.0,
        0.0,
        0.0,
        1.0,
        2.220446049250313e-16,
        0.0,
        0.0,
        0.0,
        0.0,
        1.0
      ],
      "name": "Sketchfab_model"
    },
    {
      "children": [
        2,
        3,
        4,
        5,
        6,
        7,
        8,
        9,
        10,
        11,
        12,
        13,
        14,
        15,
        16,
        17
      ],
      "name": "firs_3.obj.cleaner.materialmerger.gles"
    },
    {
      "mesh": 0,
      "name": "Object_2"
    },
    {
      "mesh": 1,
      "name": "Object_3"
    },
    {
      "mesh": 2,
      "name": "Object_4"
    },
    {
      "mesh": 3,
      "name": "Object_5"
    },
    {
      "mesh": 4,
      "name": "Object_6"
    },
    {
      "mesh": 5,
      "name": "Object_7"
    },
    {
      "mesh": 6,
      "name": "Object_8"
    },
    {
      "mesh": 7,
      "name": "Object_9"
    },
    {
      "mesh": 8,
      "name": "Object_10"
    },
    {
      "mesh": 9,
      "name": "Object_11"
    },
    {
      "mesh": 10,
      "name": "Object_12"
    },
    {
      "mesh": 11,
      "name": "Object_13"
    },
    {
      "mesh": 12,
      "name": "Object_14"
    },
    {
      "mesh": 13,
      "name": "Object_15"
    },
    {
      "mesh": 14,
      "name": "Object_16"
    },
    {
      "mesh": 15,
      "name": "Object_17"
    }
  ],
  "samplers": [
    {
      "magFilter": 9729,
      "minFilter": 9987,
      "wrapS": 10497,
      "wrapT": 10497
    }
  ],
  "scene": 0,
  "scenes": [
    {
      "name": "Sketchfab_Scene",
      "nodes": [
        0
      ]
    }
  ],
  "textures": [
    {
      "sampler": 0,
      "source": 0
    }
  ]
}
